<svg t="1602410086776" class="icon" viewBox="0 0 1024 1024" version="1.1" xmlns="http://www.w3.org/2000/svg" p-id="7982" width="200" height="200"><path d="M771.4 874.6H610.9c-22.1 0-40.1-18-40.1-40.1v39.3c0-3.1-2.6-5.7-5.7-5.7h-60.4c-3.1 0-5.7 2.6-5.7 5.7v-39.3c0 22.1-18 40.1-40.1 40.1H287c-22.1 0-40.1-18-40.1-40.1V561.3c0-3.1-2.6-5.7-5.7-5.7h-11.7c-18.8 0-25.4-10.7-27.3-15.3-1.9-4.6-5-16.8 8.2-30.2l296.1-284.5c7.6-7.7 17.6-11.9 28.4-11.9 10.7 0 20.7 4.2 28.2 11.7l71.9 72.2v-15c0-22.1 18-40.1 40.1-40.1H740c22.1 0 40.1 18 40.1 40.1v146.2c0 8.2 5.4 21.5 11.1 27.3l56.9 53.9c13.1 13.5 10 25.6 8 30.3-1.9 4.6-8.5 15.3-27.3 15.3h-11.7c-3.1 0-5.7 2.6-5.7 5.7v273.2c0.1 22.1-17.9 40.1-40 40.1z m-266.7-30.8h60.4c22.1 0 40.1 18 40.1 40.1v-49.3c0 3.1 2.6 5.7 5.7 5.7h160.5c3.1 0 5.7-2.6 5.7-5.7V561.3c0-20.2 15-36.9 34.4-39.7l-45-41.6c-11.9-12.2-20.8-34.3-20.8-51.3V282.5c0-3.1-2.6-5.7-5.7-5.7h-64.8c-3.1 0-5.7 2.6-5.7 5.7v33.6c0 19.9-12.5 29-24 29-5.2 0-13.1-1.8-21.5-10.2l-85.1-85.4c-1.4-1.4-3-1.6-3.9-1.6-0.9 0-2.5 0.2-3.9 1.6l-283.8 272c19.3 2.9 34.1 19.6 34.1 39.6v273.2c0 3.1 2.6 5.7 5.7 5.7H459c3.1 0 5.7-2.6 5.7-5.7v49.3c-0.1-21.9 17.9-39.8 40-39.8z m0 0" fill="#ffffff" p-id="7983"></path><path d="M771.4 887.6H610.9c-13.7 0-26.3-5.2-35.7-13.8h-17.4c0 4.1 3.2 7.3 7.3 7.3h-60.4c4.1 0 7.3-3.2 7.3-7.3h-17.4c-9.4 8.6-22 13.8-35.7 13.8H287c-29.3 0-53.1-23.8-53.1-53.1V568.6h-4.4c-18.5 0-33.2-8.7-39.3-23.3-6.1-14.6-2-31.2 11-44.4l0.3-0.3 296-284.4c10-10.1 23.3-15.6 37.6-15.6 14.2 0 27.5 5.5 37.5 15.5l51.6 51.8c6.3-22.2 26.9-38.6 51.1-38.6H740c29.3 0 53.1 23.8 53.1 53.1v146.2c0 4.7 4 14.5 7.3 18.1l57.1 54c12.9 13.2 16.9 29.9 10.7 44.4-6.2 14.6-20.9 23.3-39.3 23.3h-4.4v265.9c0 29.5-23.8 53.3-53.1 53.3z m-153.2-26.1h153.2c14.9 0 27-12.1 27-27V561.3c0-10.4 8.4-18.8 18.8-18.8h11.7c10.6 0 14.1-4.6 15.3-7.3 1.1-2.7 2-8.4-5.2-15.9l-57.1-54.1c-8-8.3-14.8-24.9-14.8-36.4V282.5c0-14.9-12.1-27-27-27h-64.8c-14.9 0-27 12.1-27 27v46.6L554 234.6c-5.1-5.1-11.8-7.9-19-7.9-7.2 0-14 2.8-19.1 8l-0.2 0.2-296 284.4c-7.3 7.5-6.5 13.2-5.4 15.9 1.1 2.7 4.6 7.3 15.2 7.3h11.7c10.4 0 18.8 8.4 18.8 18.8v273.2c0 14.9 12.1 27 27 27h164.5v-8.2H287c-10.4 0-18.8-8.4-18.8-18.8V561.3c0-13.2-9.9-24.7-23-26.7l-26.3-4 302.9-290.3c3.5-3.5 8.1-5.4 13.1-5.4s9.7 1.9 13.2 5.5l85.1 85.3c5.2 5.2 9.5 6.3 12.2 6.3 5.1 0 11-4.2 11-15.9v-33.6c0-10.4 8.4-18.8 18.8-18.8H740c10.4 0 18.8 8.4 18.8 18.8v146.2c0 13.4 7.6 32.2 16.9 41.9l64.9 60-27.2 3.9c-13.2 1.9-23.2 13.4-23.2 26.7v273.2c0 10.4-8.4 18.8-18.8 18.8H618.2v8.3z m-140.5-27v3.6c7.9-4.7 17.2-7.4 27-7.4h60.4c9.9 0 19.1 2.7 27 7.4v-3.6h26.1c0-4.1-3.2-7.3-7.3-7.3h153.2V561.3c0-18.1 9.3-34.4 23.5-44l-30.4-28.1c-14.2-14.6-24.5-40-24.5-60.4V289.9h-50.2v26.3c0 27.6-18.7 42-37.1 42-7.6 0-19.2-2.4-30.7-14l-79.9-80.1-264 253.1c14.3 9.7 23.6 26 23.6 44.1v265.9h164.5c-4.1 0-7.3 3.2-7.3 7.3h26.1z" fill="#ffffff" p-id="7984"></path><path d="M538.8 813.9h212.9v84.7H538.8z" fill="#ffffff" p-id="7985"></path><path d="M499.9 629.4v139.8c0 16.8-13.6 30.4-30.4 30.4-16.8 0-30.4-13.6-30.4-30.4V629.4c0-15.8 12.8-28.5 28.5-28.5h3.7c15.9 0 28.6 12.8 28.6 28.5zM618.5 634.8V851c0 15.8-12.8 28.5-28.5 28.5h-3.7c-15.8 0-28.5-12.8-28.5-28.5V634.8c0-15.8 12.8-28.5 28.5-28.5h3.7c15.8-0.1 28.5 12.7 28.5 28.5z" fill="#ffffff" p-id="7986"></path><path d="M588.2 661.6H469.6c-16.8 0-30.4-13.6-30.4-30.4 0-16.8 13.6-30.4 30.4-30.4h118.6c16.8 0 30.4 13.6 30.4 30.4-0.1 16.9-13.7 30.4-30.4 30.4zM588.2 887.6H379.8c-16.8 0-30.4-13.6-30.4-30.4 0-16.8 13.6-30.4 30.4-30.4h208.4c16.8 0 30.4 13.6 30.4 30.4-0.1 16.8-13.7 30.4-30.4 30.4z" fill="#ffffff" p-id="7987"></path><path d="M772.4 887.6h-78.3c-16.8 0-30.4-13.6-30.4-30.4 0-16.8 13.6-30.4 30.4-30.4h78.3c16.8 0 30.4 13.6 30.4 30.4 0 16.8-13.6 30.4-30.4 30.4z" fill="#ffffff" p-id="7988"></path></svg>