<svg t="1602410190979" class="icon" viewBox="0 0 1024 1024" version="1.1" xmlns="http://www.w3.org/2000/svg" p-id="9825" width="200" height="200"><path d="M878.933333 834.218667H532.650667L505.856 358.4h399.872z m-274.944-75.264h203.776l18.432-325.973334h-240.64zM366.762667 496.981333V85.333333h-75.264v411.648a170.666667 170.666667 0 0 0-133.461334 166.912v170.666667h342.186667v-170.666667a170.666667 170.666667 0 0 0-133.461333-166.912z m58.026666 261.973334H233.301333V663.893333a95.744 95.744 0 0 1 191.488 0z" fill="#ffffff" p-id="9826"></path><path d="M510.122667 433.322667h56.661333l-0.170667-0.341334h278.357334v0.341334h56.661333l20.48-75.776H489.472l20.650667 75.776zM279.210667 80.554667h99.84v94.208h-99.84z" fill="#ffffff" p-id="9827"></path></svg>