<svg t="1602410419012" class="icon" viewBox="0 0 1024 1024" version="1.1" xmlns="http://www.w3.org/2000/svg" p-id="10023" width="200" height="200"><path d="M772.8 757.1c0.2-1.5 0.6-4.6 1.3-9 1.4-8.2 2.9-16.4 4.7-24.6 5.6-25.5 13.1-50.9 22.7-74.5 1.8-4.4 3.7-8.7 5.6-13 5.7-12.3 14-25.7 24.9-40.4 4.8-6.4 36.6-45.2 38.8-51.7 26.1-78.6-45.8-150.7-140.6-112.7-2.9 1.2-5.5 3.1-7.4 5.6L588 608.4l14.1-6.9H386.4c-9.9 0-18 8.1-18 18 0 10 8.1 18 18 18h215.8c5.5 0 10.7-2.5 14.1-6.9l134.8-171.4-7.4 5.6C809.1 438.6 853 482.3 837 532c-0.1 0.2-0.2 0.4-0.4 0.6-0.8 0.7-4.2 5.1-8.9 10.8-12.5 15.2-17.3 21.2-24.5 30.9-12.2 16.5-21.8 31.8-28.6 46.7-2.2 4.7-4.3 9.5-6.2 14.4-10.5 25.7-18.6 53.1-24.6 80.4-1.9 8.8-3.6 17.6-5.1 26.5-0.8 4.9-1.3 8.4-1.6 10.4-1.2 9.9 5.8 18.9 15.6 20.1 9.9 1.2 18.9-5.8 20.1-15.7z m-519.5-4.4c-0.2-2-0.8-5.5-1.6-10.4-1.3-8-3-16.9-5.1-26.5-6-27.4-14.1-54.7-24.6-80.4-2-4.8-4.1-9.6-6.2-14.4-6.9-14.9-16.5-30.3-28.6-46.7-7.2-9.7-12-15.7-24.5-30.9-0.1-0.1-0.2-0.2-0.2-0.3-11.3-13.7-15.3-32.3-9.9-49.2 9-28.6 41-45.7 85.2-30.7 4.1 1.4 7.9 3.5 11.3 6.2 4.7 3.7 8.8 7.9 12.3 12.7l56.9 77.5c6.2 7.8 17.5 9.2 25.3 3 7.8-6.2 9.1-17.5 3-25.3l-78.7-97c-2.2-2.8-4.7-5.5-7.4-7.8-1.5-1.3-3.1-2.5-4.2-3-94.8-38-162.7 36.1-136.6 114.7 2.2 6.5 34 45.3 38.8 51.7 10.8 14.6 19.2 28 24.9 40.4 1.9 4.2 3.8 8.5 5.6 13 9.7 23.6 17.2 49 22.7 74.5 2 8.9 3.5 17.2 4.7 24.6 0.7 4.4 1.2 7.4 1.3 9 1.2 9.9 10.2 16.9 20.1 15.7 9.8-1.5 16.8-10.6 15.5-20.4z m1.6 84.2v-73.7l-18.2 18.4h517.8l-18.2-18.4v73.7c0 10.2 8.1 18.4 18.2 18.4 10 0 18.2-8.3 18.2-18.4v-73.7c0-10.2-8.1-18.4-18.2-18.4H236.7c-10 0-18.2 8.3-18.2 18.4v73.7c0 10.2 8.1 18.4 18.2 18.4s18.2-8.3 18.2-18.4z m-12.4-406.8V303.8c0-29.9 24.2-54.2 54-54.2H674c29.8 0 54 24.3 54 54.2v126.3h36V303.8c0-49.8-40.3-90.3-89.9-90.3H296.5c-49.7 0-89.9 40.4-89.9 90.3v126.3h35.9z m0 0" fill="#ffffff" p-id="10024"></path><path d="M754.6 863.9c-14.8 0-26.8-12.1-26.8-27.1v-46.7H263.5v46.7c0 14.9-12 27.1-26.8 27.1s-26.8-12.1-26.8-27.1v-73.7-0.7c-0.4-1.4-0.7-2.8-0.9-4.2-0.1-0.7-0.4-3.4-1.3-8.6-1.3-7.7-2.8-15.8-4.7-24.1-5.8-26.5-13.3-51.1-22.3-73-1.8-4.4-3.6-8.6-5.5-12.6-5.2-11.4-13.1-24.1-24-38.8-1.1-1.5-4.2-5.4-7.8-9.9-23.1-29-30.6-39.4-32.2-44.2-13.5-40.6-4-82.5 24.7-109.5 14.5-13.6 32.9-22.4 53.4-25.5 2.8-0.4 5.7-0.7 8.5-1V303.8c0-54.5 44.2-98.9 98.6-98.9H674c54.3 0 98.6 44.4 98.6 98.9v108.8c8.7-0.6 17.2-0.3 25.3 0.8l0.6-0.5-0.4 0.5c21.4 3 40.7 12 56.3 26.6 28.3 26.6 37.7 67.5 24.7 106.8-1.6 4.8-9.1 15.2-32.2 44.2-3.6 4.5-6.7 8.4-7.8 9.9-10.9 14.7-18.7 27.4-24 38.8-1.9 4.1-3.7 8.4-5.5 12.6-9 21.9-16.5 46.5-22.3 73-1.8 8-3.3 16.1-4.7 24.1-0.7 4.2-1.1 7.2-1.3 8.6-0.1 0.5-0.1 1-0.2 1.4 0.1 1.2 0.2 2.3 0.2 3.5v73.7c0.1 15.2-11.9 27.3-26.7 27.3z m-9.5-73.7v46.7c0 5.4 4.3 9.8 9.5 9.8 5.3 0 9.5-4.4 9.5-9.8v-46.7h-19z m-517.9 0v46.7c0 5.4 4.3 9.8 9.5 9.8 5.3 0 9.5-4.4 9.5-9.8v-46.7h-19z m36.3-17.3h464.2v-19.6H263.5v19.6z m482.2-19.6v0.4c-0.6 5.2 3 9.9 8.1 10.5 2.5 0.3 4.9-0.4 6.9-1.9 1.1-0.9 2-1.9 2.6-3.2-1.5-3.4-4.8-5.8-8.7-5.8h-8.9z m-518 6.7c0.6 0.9 1.3 1.6 2.1 2.3 2 1.5 4.4 2.2 6.9 1.9 5.1-0.6 8.8-5.3 8.1-10.5 0-0.1 0-0.2-0.1-0.4h-8c-4.2 0-7.8 2.8-9 6.7z m-100-218.8c2.3 5 21.3 28.8 29.4 39.1 4 5 6.9 8.6 8.2 10.4 11.6 15.7 20 29.4 25.8 41.9 1.9 4.2 3.9 8.7 5.8 13.3 9.4 22.9 17.2 48.4 23.2 75.9 1.3 6.1 2.5 12 3.6 17.8 3.9-2.2 8.4-3.5 13.2-3.5h5.2c-1.1-6-2.3-12.1-3.7-18.4-6.2-28.5-14.4-55.1-24.1-79-1.9-4.7-4-9.4-6.1-14-6.3-13.7-15.4-28.5-27.7-45.2-7.1-9.6-11.8-15.5-24.2-30.6l-0.2-0.3c-13.4-16.3-17.7-37.7-11.5-57.3 4.8-15.3 15.3-27.7 29.6-34.9 12.9-6.5 34.9-12.1 66.6-1.3 5 1.7 9.6 4.2 13.8 7.5 5.3 4.1 10 9 13.9 14.4l56.8 77.4c1.5 1.9 3.7 3.1 6.2 3.4 2.5 0.3 4.9-0.4 6.9-2 4-3.2 4.7-9.1 1.6-13.2l-78.8-97c-2-2.5-4.1-4.8-6.3-6.7-1.1-1-1.8-1.4-2-1.6l-1.5-0.6v2h-53.2v-10.6c-2 0.2-4 0.4-5.9 0.7-17 2.6-32.3 9.8-44.1 21-24 22.3-31.8 57.3-20.5 91.4z m704.7-1.3c1.8 1.1 3.7 1.4 5.4 1.2 1.2-0.1 2 1.2 1.2 2.1v0.1c-1.3 1.6-2.8 3.5-4.5 5.6-12.4 15.1-17.1 21-24.2 30.6-12.4 16.7-21.5 31.5-27.7 45.2-2.1 4.6-4.2 9.3-6.1 14-9.8 23.8-17.9 50.4-24.2 79-1.3 6.1-2.6 12.2-3.7 18.4h6.1c4.5 0 8.7 1.1 12.4 3.1 1.1-5.8 2.2-11.6 3.5-17.4 6-27.5 13.8-53 23.2-75.9 1.8-4.5 3.8-8.9 5.8-13.3 5.8-12.5 14.2-26.2 25.8-41.9 1.3-1.8 4.2-5.4 8.2-10.4 8.1-10.2 27.1-34.1 29.4-39.1 11-33.2 3.4-66.3-20.2-88.6-15.2-14.3-35.1-22.1-57.2-22.9l-15.3 19.4c23.5-2.8 44.7 3.1 59.7 17.2 18.2 17.1 23.9 42.9 15.2 69.1M259.5 736H731c1.3-7.4 2.8-14.8 4.4-22.1 6.5-29.6 14.9-57.1 25-81.8 2-5 4.2-9.9 6.4-14.7 6.8-14.8 16.5-30.6 29.6-48.3 7.3-9.9 12.1-15.9 24.8-31.3 1.7-2 3.2-3.9 4.4-5.4 1.4-1.7 2.5-3.1 3.4-4.1 0.1-0.2 0.3-0.3 0.4-0.5 5.6-18.9 1.4-37.1-11.3-49-14.9-14-38.7-16.9-64.7-8.3L623 636.1c-5.1 6.5-12.7 10.2-20.9 10.2H386.4c-14.7 0-26.6-12-26.6-26.7s11.9-26.7 26.6-26.7h202.9l126.9-161.3c1-1.3 2.1-2.4 3.3-3.5V303.8c0-25.1-20.3-45.5-45.3-45.5H296.5c-25 0-45.3 20.4-45.3 45.5v114.5c2.7 0.9 5.5 2 8.2 3.1 1.9 0.8 4 2.2 6.7 4.5 2.9 2.6 5.8 5.6 8.4 8.9l78.8 97c9.1 11.5 7.1 28.3-4.4 37.5-5.6 4.4-12.6 6.4-19.6 5.6-7.1-0.8-13.4-4.4-17.8-10l-0.2-0.2-56.9-77.5c-3-4.1-6.6-7.9-10.7-11-2.7-2.1-5.6-3.7-8.7-4.8-20.2-6.9-39.1-6.7-53.2 0.4-10.3 5.2-17.5 13.8-21 24.7-4.4 14-1.3 29.4 8.4 41.1l0.2 0.3c12.6 15.4 17.4 21.3 24.8 31.3 13.1 17.7 22.7 33.5 29.6 48.3 2.2 4.8 4.4 9.8 6.4 14.7 10.2 24.8 18.6 52.3 25 81.8 1.6 7.5 3 14.9 4.3 22z m305.9-107h36.7c2.9 0 5.5-1.3 7.3-3.6l22.7-28.9-66.7 32.5z m-179-18.9c-5.2 0-9.3 4.2-9.3 9.4s4.2 9.4 9.3 9.4h174.5l14.8-18.8H386.4z m224.8-17.2H635l86.3-109.7-34.8 14-75.3 95.7z m251.5-51.6zM735.2 438.7c-0.6 0.2-1.1 0.4-1.7 0.7-1.5 0.6-2.9 1.6-3.9 2.9l-42.7 54.3 77.2-57.8h-28.9z m37.4-8.7v2.5l3.6-2.7c-1.2 0-2.4 0.1-3.6 0.2zM296.5 241H674c34.5 0 62.6 28.2 62.6 62.8v116c6.3-2.1 12.5-3.7 18.7-5v-111c0-45-36.5-81.6-81.3-81.6H296.5c-44.8 0-81.3 36.6-81.3 81.6v106.9c6.2 0.4 12.4 1.3 18.7 2.7V303.8c0-34.6 28.1-62.8 62.6-62.8z" fill="#ffffff" p-id="10025"></path></svg>