<svg t="1602409972126" class="icon" viewBox="0 0 1024 1024" version="1.1" xmlns="http://www.w3.org/2000/svg" p-id="6997" width="200" height="200"><path d="M181.6 998.4h-0.8c-14.4-4.8-62.4-28-62.4-125.6V633.6c0-0.8 16-140 87.2-241.6l2.4-3.2h152.8l3.2 1.6c29.6 19.2 47.2 41.6 53.6 68 7.2 24.8 1.6 53.6-16 82.4 14.4 6.4 153.6 66.4 236 103.2 60 26.4 98.4 61.6 115.2 104.8 16.8 42.4 11.2 93.6-16 153.6-4.8 12.8-28 62.4-58.4 93.6l-2.4 2.4H181.6z m467.2-56c16.8-22.4 29.6-49.6 33.6-60l0.8-2.4c20.8-44.8 25.6-81.6 14.4-110.4-10.4-28.8-38.4-52.8-84.8-72.8-76.8-34.4-206.4-91.2-231.2-101.6L320 568l32.8-53.6c16-26.4 10.4-38.4 10.4-39.2v-1.6c-3.2-10.4-10.4-20-16-24l-3.2-3.2H236.8c-48.8 82.4-61.6 179.2-63.2 190.4V872c0 34.4 7.2 53.6 13.6 62.4 1.6 3.2 4 5.6 6.4 7.2h455.2zM516.8 440c-4 0-12-1.6-30.4-15.2l-1.6-0.8-0.8-1.6c-8.8-18.4-51.2-95.2-89.6-98.4h-1.6c-3.2-0.8-7.2-4.8-8.8-10.4-2.4-9.6 3.2-28.8 44.8-65.6l1.6-1.6H464l0.8 6.4c2.4 28 14.4 121.6 60 153.6l2.4 1.6 0.8 3.2c2.4 12.8 1.6 20-0.8 24.8v0.8l-0.8 0.8c-4 1.6-7.2 2.4-9.6 2.4z m-302.4-69.6v-72.8c-7.2-17.6-28.8-58.4-84.8-68.8l-5.6-0.8V197.6c0-0.8 25.6-77.6 101.6-112l1.6-0.8h242.4v122.4h-19.2c-13.6 7.2-66.4 36.8-89.6 100.8v61.6l-146.4 0.8z m88.8-55.2v-15.2l4-9.6c14.4-38.4 39.2-74.4 72-102.4 12.8-10.4 24.8-19.2 34.4-24.8v-24.8H238.4c-16.8 9.6-32.8 23.2-46.4 41.6l-6.4 8.8-0.8 1.6 1.6 0.8c45.6 24 72 64 80 91.2l2.4 8v24h34.4z m565.6-36c-18.4 0-34.4-16-34.4-34.4s16-34.4 34.4-34.4 34.4 16 34.4 34.4c0 19.2-15.2 34.4-34.4 34.4z m-81.6-48.8c-17.6 0-31.2-13.6-31.2-31.2s13.6-31.2 31.2-31.2 31.2 13.6 31.2 31.2-13.6 31.2-31.2 31.2zM488 208V84.8h47.2l18.4 22.4v80L530.4 208H488z m384-17.6c-18.4 0-33.6-14.4-33.6-33.6 0-18.4 14.4-33.6 33.6-33.6 18.4 0 33.6 14.4 33.6 33.6 0 18.4-15.2 33.6-33.6 33.6z m-159.2-2.4c-16.8 0-29.6-13.6-29.6-29.6S696 128 712.8 128s29.6 13.6 29.6 29.6-13.6 30.4-29.6 30.4z m77.6-57.6c-17.6 0-32-14.4-32-32s14.4-32 32-32 32 14.4 32 32-14.4 32-32 32zM872 88c-18.4 0-33.6-14.4-33.6-33.6 0-18.4 14.4-33.6 33.6-33.6 18.4 0 33.6 14.4 33.6 33.6 0 18.4-15.2 33.6-33.6 33.6z" fill="#ffffff" p-id="6998"></path></svg>